<svg width="215" height="75" viewBox="0 0 215 75" fill="none" xmlns="http://www.w3.org/2000/svg">
<path fill-rule="evenodd" clip-rule="evenodd" d="M59.1793 55.3597C61.8899 54.5826 65.1336 53.4704 67.8586 52.5513C68.0431 52.4289 68.2285 52.3056 68.4062 52.1866C70.2164 50.9741 71.7808 49.9257 72.9287 49.5057C74.0493 49.0908 74.9803 48.6708 75.7277 48.3332C76.5609 47.9566 77.219 47.6598 77.8312 47.5093C78.247 47.4141 78.6415 47.4005 79.0224 47.3877C79.7205 47.3631 80.3803 47.3401 81.2968 46.8079C81.9821 46.404 83.2388 45.1771 84.3756 44.0258C81.1787 45.1125 77.3789 46.3598 76.8772 46.5332C75.9904 46.8351 73.4932 46.6098 73.0443 46.7194C69.5838 47.5671 63.1822 52.0947 61.2037 52.4697C59.9453 52.7078 57.7449 52.1968 57.3954 52.5581C57.0596 52.905 55.6388 53.3353 54.6049 54.3904C54.6049 54.3904 54.7954 55.0885 55.7451 55.318C56.7416 55.5374 57.2654 55.8273 59.1793 55.3597ZM152.344 56.8391C152.186 56.6419 150.921 55.9447 149.328 55.1293C146.23 54.3692 142.518 53.4458 142.012 53.3097C141.098 53.0759 140.09 52.4944 139.538 52.0616C138.122 51.6177 129.665 49.6885 126.997 49.1027C126.902 49.1988 126.805 49.2957 126.704 49.3926C126.698 49.3977 126.602 49.4862 126.44 49.6222C129.272 50.5558 131.594 51.3975 132.036 51.6084C133.107 52.1347 135.32 53.4789 136.379 53.9899C137.452 54.5171 140.428 54.8751 143.477 55.9345C146.525 57.0083 148.521 57.2524 149.166 58.0584C149.637 58.6476 150.419 58.6791 150.413 59.134C150.464 59.5302 151.256 59.4001 152.447 59.3482C153.015 59.3244 153.441 59.31 154.264 58.7233C154.808 58.3356 152.68 57.2583 152.344 56.8391ZM159.88 56.7983C159.318 56.8162 158.743 57.1384 158.377 57.1495C158.012 57.1614 156.836 57.1121 156.645 56.9369C155.832 56.1955 154.925 55.0349 153.856 54.8189C153.015 54.6497 143.214 52.224 142.349 51.9919C141.499 51.7742 140.523 51.1442 140.247 50.8797C139.966 50.6093 127.487 47.8001 126.529 47.6114C126.306 47.8639 126.059 48.1249 125.76 48.4131C125.639 48.5288 120.782 52.9441 114.188 51.2105C105.706 48.9794 100.285 54.9286 90.2483 49.4156C90.2483 49.4156 87.8183 49.6213 86.6925 50.0448C85.5676 50.4691 82.2542 51.5081 81.2339 51.7274C80.2153 51.9604 78.6645 52.2826 77.5005 52.8234C76.3373 53.3625 71.7502 55.0953 70.9961 55.8494C70.3269 56.5194 65.3444 57.9088 64.5835 58.2914C63.8361 58.6604 63.0284 59.3474 62.275 59.5293C61.5209 59.7113 61.0473 59.7232 59.7838 59.6705C58.6708 59.6254 58.0161 59.4341 57.699 58.9512C58.363 58.3211 59.4845 57.3876 60.4657 57.0185C61.3372 56.942 62.0174 56.8672 63.1261 56.6555C65.6701 56.1879 71.0802 51.6313 73.4014 50.7819C75.7353 49.9172 77.1986 49.0661 78.1339 48.8349C79.0828 48.6181 80.234 48.999 81.9872 47.9804C83.7405 46.9465 87.6814 42.3602 88.3888 42.0363C89.0953 41.6979 89.4669 41.9011 89.7118 41.6349C89.9422 41.3833 88.2366 40.7906 89.035 40.2618C89.035 40.2618 104.922 42.174 105.779 42.1468C106.635 42.1196 116.074 43.2207 117.557 39.8673C119.039 36.5139 120.36 35.1356 118.907 32.3349C117.439 29.5205 114.768 30.3963 113.767 30.7585C112.781 31.1207 111.647 31.7601 110.336 32.0892C109.011 32.4037 107.511 32.5525 107.157 32.9369C106.804 33.322 104.493 34.0566 103.84 32.5253C103.202 31.0068 103.789 30.9311 104.279 30.4125C104.769 29.8793 109.972 25.9044 109.972 25.9044L110.986 25.0678C110.986 25.0678 111.161 24.3723 111.15 24.0424C111.139 23.6972 111.231 23.0331 111.435 22.8112C111.652 22.5884 111.67 21.8258 111.902 21.5885C112.119 21.3369 112.271 21.2459 112.475 21.0104C112.692 20.7867 112.683 20.615 112.923 20.5215C113.26 20.3897 112.73 21.0877 112.621 21.2068C112.498 21.3394 112.136 21.4372 112.149 21.8394C112.162 22.2415 111.931 22.5221 111.938 22.7228C111.945 22.9243 111.72 23.3766 111.822 23.4744C111.923 23.5713 112.039 23.8324 112.198 23.8358C112.357 23.84 112.605 23.363 112.782 23.1709C112.958 22.9787 114.19 21.7577 114.681 21.4057C115.173 21.0537 115.985 20.3081 116.461 19.9059C116.937 19.5046 117.486 19.0718 117.742 18.8286C117.998 18.5854 117.773 17.8449 117.768 17.7012C117.764 17.5728 117.755 17.0856 117.918 16.9079C118.081 16.7446 118.565 16.4853 118.729 16.3076C118.851 16.1741 119.416 15.6368 119.664 15.6453C119.911 15.6538 119.266 16.3909 119.143 16.5389C119.007 16.6724 118.82 16.8297 118.679 16.9564C118.538 17.0822 118.617 17.5362 118.711 17.6774C118.805 17.8194 118.954 17.9427 119.084 17.9256C119.213 17.9086 119.755 17.3866 119.919 17.2233C120.082 17.0456 120.898 16.618 120.993 16.5134C121.088 16.396 121.821 15.993 121.904 15.9675C121.987 15.942 122.202 16.0585 122.08 16.2064C121.944 16.3399 121.546 16.6401 121.423 16.7591C121.315 16.8917 111.459 24.4777 112.009 26.2862C112.009 26.2862 112.263 26.3619 112.361 26.3363C112.459 26.3117 112.931 26.1136 112.931 26.1136C112.931 26.1136 119.92 23.4914 120.215 23.482C120.51 23.4727 125.912 21.7637 126.156 21.4967C126.401 21.2306 128.425 20.7782 128.72 20.7689C129.015 20.7595 129.715 20.6652 129.941 20.6584C130.179 20.6507 130.519 20.6056 130.548 20.7536C130.577 20.9024 130.291 21.0639 129.996 21.0733C129.686 21.0835 128.999 21.1337 128.836 21.3114C128.673 21.4891 127.749 21.6481 127.655 21.7509C127.56 21.8547 127.026 22.0256 127.005 22.074C126.983 22.1216 126.97 22.2458 127.011 22.2891C127.052 22.3325 127.295 22.4549 127.355 22.4796C127.414 22.5034 127.954 22.6284 128.02 22.6309C128.086 22.6335 128.876 22.5417 128.973 22.5289C129.071 22.5162 129.628 22.6054 129.736 22.6343C129.844 22.6633 130.276 22.8716 130.055 22.9693C129.836 23.0671 128.131 23.0297 127.668 23.045C127.204 23.0595 126.592 22.8342 126.171 22.8478C125.735 22.8614 125.293 22.6454 124.28 23.051C123.266 23.4574 122.588 23.8094 121.99 24.0007C121.405 24.192 120.672 24.6886 120.336 24.777C120.174 24.8195 119.806 24.9147 119.894 25.0295C119.982 25.1434 120.969 25.1766 121.56 25.1069C122.165 25.0873 123.204 25.0695 123.349 25.2081C123.509 25.3611 124.527 25.5448 124.893 25.5329C125.257 25.5218 126.409 25.6119 126.42 25.8296C126.432 26.0481 124.415 25.9937 123.839 26.0124C123.277 26.0294 121.753 25.8338 121.486 25.8423C121.219 25.8509 119.557 25.7743 118.827 25.7973C118.096 25.8202 117.207 25.7191 117.017 25.9265C116.813 26.134 116 26.1978 115.695 26.3704C115.391 26.543 115.076 26.7929 115.076 26.7929C115.076 26.7929 114.862 27.1806 115.021 27.2835C115.18 27.3856 115.27 27.2529 115.593 27.167C116.587 26.9001 122.566 27.5616 125.872 30.7347C129.179 33.9078 128.658 41.4428 128.26 42.6484C128.26 42.6484 146.872 49.2039 147.41 49.7183C147.945 50.2335 154.23 52.8659 154.778 52.8489C155.326 52.8319 156.96 53.3846 157.495 53.8845C158.033 54.3989 159.312 55.2925 159.646 55.6267C159.993 55.9608 160.427 56.7813 159.88 56.7983Z" fill="white"/>
<path d="M142.348 70.2925H72.3953V57.8066L72.5645 57.7147C72.7124 57.634 72.8918 57.5438 73.0891 57.4494L73.555 57.2258V69.1311H141.188V57.8797L142.348 58.2283V70.2925Z" fill="white"/>
<path d="M142.348 45.0378L141.188 44.611V18.6792L134.986 8.84432L107.372 1.19971L79.7576 8.84432L73.555 18.6792V44.1306L73.243 44.1425C73.0729 44.1502 72.9199 44.1655 72.7762 44.1901L72.3953 44.2565L72.425 18.362L78.9311 7.86058L107.372 0L135.812 7.86058L142.348 18.4972V45.0378Z" fill="white"/>
</svg>
